<svg xmlns="http://www.w3.org/2000/svg" width="62" height="62" viewBox="0 0 62 62">
  <defs>
    <style>
      .cls-1 {
        fill-rule: evenodd;
      }
    </style>
  </defs>
  <path class="cls-1" d="M19.6,12.236c0,4.607,5.484,12.071,8.843,16.21-4.14-3.359-11.6-8.844-16.21-8.844C5.6,19.6.007,24.705,0.007,31s5.589,11.4,12.229,11.4c4.607,0,12.07-5.484,16.21-8.844-3.359,4.14-8.843,11.6-8.843,16.21,0,6.64,5.1,12.23,11.4,12.23S42.4,56.4,42.4,49.762c0-4.607-5.484-12.07-8.844-16.21,4.14,3.359,11.6,8.844,16.21,8.844,6.641,0,12.229-5.1,12.229-11.4S56.4,19.6,49.762,19.6c-4.607,0-12.07,5.484-16.21,8.844,3.359-4.14,8.844-11.6,8.844-16.21C42.4,5.6,37.293.007,31,.007S19.6,5.6,19.6,12.236Z"/>
</svg>
