<svg xmlns="http://www.w3.org/2000/svg" width="32" height="20" viewBox="0 0 32 20">
  <defs>
    <style>
      .cls-1 {
        fill-rule: evenodd;
      }
    </style>
  </defs>
  <path id="icon" class="cls-1" d="M31.984,10.163h0a1.969,1.969,0,0,1-.047.241,1.92,1.92,0,0,1-.277.655,2.093,2.093,0,0,1-.2.3c-0.012.013-.015,0.03-0.028,0.042L23.39,19.429a1.985,1.985,0,1,1-2.809-2.806L25.211,12H2A2,2,0,0,1,2,8H25.224L20.581,3.364A1.985,1.985,0,1,1,23.39.56l8.045,8.031A1.95,1.95,0,0,1,31.984,10.163Z"/>
</svg>
